<svg xmlns="http://www.w3.org/2000/svg" style="display:none">
  <symbol id="icon-ball" viewBox="0 0 24 24">
    <circle cx="12" cy="12" r="10" stroke="currentColor" stroke-width="2" fill="none" stroke-linecap="round" stroke-linejoin="round"/>
    <path d="M12 2v4M12 18v4M2 12h4M18 12h4" stroke="currentColor" stroke-width="2" fill="none" stroke-linecap="round" stroke-linejoin="round"/>
    <path d="M5.64 5.64l2.83 2.83M15.53 15.53l2.83 2.83M18.36 5.64l-2.83 2.83M8.47 15.53l-2.83 2.83" stroke="currentColor" stroke-width="2" fill="none" stroke-linecap="round" stroke-linejoin="round"/>
  </symbol>

  <symbol id="icon-trophy" viewBox="0 0 24 24">
    <path d="M6 9c0-1 0-2 0-3h12c0 1 0 2 0 3M6 9a2 2 0 0 1 2-2h8a2 2 0 0 1 2 2M6 9h12M9 6h6M8 15c-1 0-2 1-2 2v2h12v-2c0-1-1-2-2-2M12 3v2M12 15v6" stroke="currentColor" stroke-width="2" fill="none" stroke-linecap="round" stroke-linejoin="round"/>
    <path d="M6 21h12" stroke="currentColor" stroke-width="2" fill="none" stroke-linecap="round" stroke-linejoin="round"/>
  </symbol>

  <symbol id="icon-calendar" viewBox="0 0 24 24">
    <rect x="3" y="4" width="18" height="18" rx="2" ry="2" stroke="currentColor" stroke-width="2" fill="none" stroke-linecap="round" stroke-linejoin="round"/>
    <path d="M16 2v4M8 2v4M3 10h18" stroke="currentColor" stroke-width="2" fill="none" stroke-linecap="round" stroke-linejoin="round"/>
  </symbol>

  <symbol id="icon-field" viewBox="0 0 24 24">
    <rect x="2" y="3" width="20" height="18" rx="1" stroke="currentColor" stroke-width="2" fill="none" stroke-linecap="round" stroke-linejoin="round"/>
    <path d="M12 3v18M2 12h20M6 3v18M18 3v18" stroke="currentColor" stroke-width="2" fill="none" stroke-linecap="round" stroke-linejoin="round"/>
    <circle cx="12" cy="12" r="1.5" fill="currentColor"/>
  </symbol>

  <symbol id="icon-arrow-up" viewBox="0 0 24 24">
    <path d="M12 19V5M5 12l7-7 7 7" stroke="currentColor" stroke-width="2" fill="none" stroke-linecap="round" stroke-linejoin="round"/>
  </symbol>

  <symbol id="icon-moon" viewBox="0 0 24 24">
    <path d="M21 12.79A9 9 0 1 1 11.21 3 7 7 0 0 0 21 12.79z" stroke="currentColor" stroke-width="2" fill="none" stroke-linecap="round" stroke-linejoin="round"/>
  </symbol>

  <symbol id="icon-sun" viewBox="0 0 24 24">
    <circle cx="12" cy="12" r="5" stroke="currentColor" stroke-width="2" fill="none" stroke-linecap="round" stroke-linejoin="round"/>
    <path d="M12 1v6M12 17v6M4.22 4.22l4.24 4.24M15.54 15.54l4.24 4.24M1 12h6M17 12h6M4.22 19.78l4.24-4.24M15.54 8.46l4.24-4.24" stroke="currentColor" stroke-width="2" fill="none" stroke-linecap="round" stroke-linejoin="round"/>
  </symbol>

  <symbol id="icon-search" viewBox="0 0 24 24">
    <circle cx="11" cy="11" r="8" stroke="currentColor" stroke-width="2" fill="none" stroke-linecap="round" stroke-linejoin="round"/>
    <path d="m21 21-4.35-4.35" stroke="currentColor" stroke-width="2" fill="none" stroke-linecap="round" stroke-linejoin="round"/>
  </symbol>

  <symbol id="icon-chevron-down" viewBox="0 0 24 24">
    <path d="M6 9l6 6 6-6" stroke="currentColor" stroke-width="2" fill="none" stroke-linecap="round" stroke-linejoin="round"/>
  </symbol>

  <symbol id="icon-star" viewBox="0 0 24 24">
    <path d="M12 2l3.09 6.26L22 9.27l-5 4.87 1.18 6.88L12 17.77l-6.18 3.25L7 14.14 2 9.27l6.91-1.01L12 2z" stroke="currentColor" stroke-width="2" fill="currentColor" stroke-linecap="round" stroke-linejoin="round"/>
  </symbol>

  <symbol id="icon-home" viewBox="0 0 24 24">
    <path d="M3 9l9-7 9 7v11a2 2 0 0 1-2 2H5a2 2 0 0 1-2-2z" stroke="currentColor" stroke-width="2" fill="none" stroke-linecap="round" stroke-linejoin="round"/>
    <path d="M9 22V12h6v10" stroke="currentColor" stroke-width="2" fill="none" stroke-linecap="round" stroke-linejoin="round"/>
  </symbol>

  <symbol id="icon-chart" viewBox="0 0 24 24">
    <path d="M3 3v18a2 2 0 0 0 2 2h16" stroke="currentColor" stroke-width="2" fill="none" stroke-linecap="round" stroke-linejoin="round"/>
    <path d="M18 17V9M12 17v-5M6 17v-3" stroke="currentColor" stroke-width="2" fill="none" stroke-linecap="round" stroke-linejoin="round"/>
  </symbol>

  <symbol id="icon-stats" viewBox="0 0 24 24">
    <path d="M12 2v20M2 12h20M3 3l6 6M15 3l6 6M3 21l6-6M15 21l6-6" stroke="currentColor" stroke-width="2" fill="none" stroke-linecap="round" stroke-linejoin="round"/>
    <circle cx="12" cy="12" r="2" fill="currentColor"/>
  </symbol>
</svg>
